<?xml version="1.0" standalone="no"?>
<!DOCTYPE svg PUBLIC "-//W3C//DTD SVG 20010904//EN"
 "http://www.w3.org/TR/2001/REC-SVG-20010904/DTD/svg10.dtd">
<svg version="1.0" xmlns="http://www.w3.org/2000/svg"
 width="356.000000pt" height="140.000000pt" viewBox="0 0 356.000000 140.000000"
 preserveAspectRatio="xMidYMid meet">

<g transform="translate(0.000000,140.000000) scale(0.100000,-0.100000)"
fill="#000000" stroke="none">
<path d="M0 700 l0 -700 1780 0 1780 0 0 700 0 700 -1780 0 -1780 0 0 -700z
m757 577 c74 -20 153 -71 253 -164 183 -172 263 -301 263 -422 -1 -130 -57
-225 -238 -400 -184 -177 -296 -225 -438 -188 -88 23 -157 70 -287 197 -167
162 -230 269 -230 390 0 117 54 211 218 376 124 124 211 186 292 208 70 19
103 19 167 3z m851 -463 c41 -11 26 -34 -22 -34 -37 0 -48 -5 -66 -27 -18 -24
-21 -38 -18 -87 5 -70 21 -86 85 -86 55 0 60 -26 7 -36 -77 -14 -134 43 -134
137 0 94 67 154 148 133z m492 -129 c0 -122 -6 -155 -25 -125 -4 6 -15 6 -31
0 -65 -25 -114 11 -114 83 0 65 25 91 86 92 47 0 49 1 52 30 4 41 10 55 22 55
6 0 10 -49 10 -135z m504 41 c33 -98 43 -116 54 -99 4 6 18 50 32 97 19 67 29
86 43 86 21 0 22 6 -33 -150 -49 -137 -62 -139 -102 -17 -17 48 -33 87 -38 87
-10 0 -16 -15 -45 -105 -17 -50 -28 -71 -41 -73 -16 -2 -26 19 -61 120 -24 67
-41 124 -38 126 14 14 35 -16 59 -85 16 -43 32 -82 36 -87 11 -11 22 15 50
112 29 100 46 98 84 -12z m-774 -1 c68 -35 54 -150 -22 -169 -73 -18 -128 33
-114 107 12 66 74 94 136 62z m455 9 c19 -8 45 -55 45 -84 0 -18 -6 -20 -61
-20 -52 0 -60 -2 -57 -17 2 -14 15 -19 51 -21 32 -2 47 -8 47 -17 0 -34 -94
-30 -126 6 -23 25 -24 99 -3 125 23 28 70 41 104 28z m629 -15 c24 -19 26 -26
26 -96 0 -62 -2 -73 -13 -64 -10 8 -22 7 -45 -1 -47 -18 -82 1 -82 46 0 41 28
66 73 66 45 0 27 25 -21 28 -65 5 -54 37 14 41 12 0 33 -8 48 -20z m420 -1
c15 -13 29 -38 32 -55 l7 -33 -67 0 c-36 0 -66 -4 -66 -8 0 -19 27 -32 67 -32
49 0 61 -23 17 -34 -99 -25 -165 84 -95 155 35 35 71 37 105 7z m-289 -51 c10
-26 22 -46 28 -44 5 1 18 26 29 55 14 38 25 52 39 52 15 0 18 -4 11 -17 -5
-10 -21 -51 -36 -90 -37 -97 -51 -96 -95 8 -28 66 -31 83 -20 90 18 10 22 5
44 -54z"/>
<path d="M595 1236 c-87 -28 -133 -61 -266 -195 -170 -171 -201 -220 -207
-337 -4 -72 -1 -89 21 -138 69 -150 322 -391 446 -426 20 -5 64 -10 97 -10 50
0 75 7 135 36 62 31 96 59 210 173 163 164 203 230 203 340 1 115 -38 190
-174 335 -188 197 -329 265 -465 222z m190 -286 c101 -43 165 -145 165 -260 0
-240 -283 -368 -458 -207 -59 55 -84 108 -90 189 -15 214 188 362 383 278z"/>
<path d="M597 946 c-59 -22 -105 -57 -137 -104 -50 -75 -63 -204 -23 -219 29
-11 102 37 130 86 36 63 62 91 100 107 45 19 76 17 107 -7 32 -25 33 -35 2
-43 -14 -3 -28 -15 -31 -26 -23 -71 74 -102 168 -53 26 13 28 18 22 51 -15 78
-66 148 -136 186 -61 34 -146 43 -202 22z"/>
<path d="M1974 675 c-12 -18 -14 -31 -7 -52 10 -30 37 -39 79 -29 20 5 24 13
24 44 0 45 -14 62 -52 62 -18 0 -33 -8 -44 -25z"/>
<path d="M1740 681 c-14 -28 -12 -67 4 -80 8 -7 30 -11 48 -9 43 4 60 43 34
82 -21 32 -70 36 -86 7z"/>
<path d="M2210 680 c-10 -19 -8 -20 40 -20 48 0 50 1 40 20 -7 13 -21 20 -40
20 -19 0 -33 -7 -40 -20z"/>
<path d="M2837 633 c-4 -3 -7 -15 -7 -25 0 -13 8 -18 29 -18 31 0 57 22 46 40
-7 11 -58 14 -68 3z"/>
<path d="M3252 688 c-21 -21 -13 -28 33 -28 25 0 45 4 45 8 0 15 -24 32 -45
32 -12 0 -26 -5 -33 -12z"/>
</g>
</svg>
