<?xml version="1.0" standalone="no"?>
<!DOCTYPE svg PUBLIC "-//W3C//DTD SVG 20010904//EN"
 "http://www.w3.org/TR/2001/REC-SVG-20010904/DTD/svg10.dtd">
<svg version="1.0" xmlns="http://www.w3.org/2000/svg"
 width="512.000000pt" height="512.000000pt" viewBox="0 0 512.000000 512.000000"
 preserveAspectRatio="xMidYMid meet">

<g transform="translate(0.000000,512.000000) scale(0.100000,-0.100000)"
fill="#000000" stroke="none">
<path d="M820 4844 c-112 -30 -209 -116 -252 -222 l-23 -57 0 -2005 0 -2005
23 -58 c33 -81 114 -166 194 -203 l63 -29 960 0 960 0 57 27 c76 35 138 95
179 170 l34 63 5 565 5 565 253 3 c138 1 252 -1 252 -4 0 -4 -14 -22 -31 -42
-44 -50 -61 -97 -61 -169 -1 -77 27 -138 87 -191 96 -85 244 -85 340 0 60 53
88 114 87 191 0 72 -17 119 -61 169 -17 20 -31 38 -31 42 0 3 41 6 91 6 88 0
90 1 87 23 l-3 22 -790 5 -790 5 -36 23 c-21 12 -44 33 -52 46 -13 20 -87 230
-87 248 0 3 32 -10 71 -30 l72 -37 764 -3 c853 -3 841 -4 940 64 28 19 68 59
87 87 41 59 43 66 241 874 106 430 115 476 105 512 -11 43 -49 94 -84 114 -16
9 -197 13 -736 17 l-715 5 -5 480 -5 480 -27 52 c-55 104 -136 170 -243 198
-87 22 -1840 22 -1925 -1z m1972 -72 c78 -38 129 -94 159 -172 18 -47 19 -80
19 -510 l0 -460 -604 0 -604 0 -26 77 c-31 91 -64 143 -114 176 -61 39 -98 47
-234 47 -128 0 -129 0 -126 -22 3 -22 7 -23 138 -28 146 -6 172 -14 221 -67
15 -15 33 -41 42 -58 15 -30 408 -1233 556 -1704 44 -140 91 -270 105 -292 31
-46 61 -67 127 -89 l48 -17 -31 -29 c-72 -68 -94 -195 -49 -287 28 -57 96
-119 149 -135 93 -28 200 -5 266 56 96 90 102 277 10 362 -13 13 -24 27 -24
32 0 4 34 8 75 8 l75 0 0 -545 c0 -532 0 -546 -21 -602 -26 -68 -91 -138 -164
-173 l-50 -25 -950 0 c-949 0 -950 0 -996 21 -69 32 -128 91 -161 159 l-28 60
0 2005 0 2005 24 50 c31 66 68 110 124 142 90 53 69 52 1057 50 l920 -2 67
-33z m-242 -1397 l0 -205 -320 0 -319 0 -62 193 c-34 105 -64 198 -66 205 -4
9 76 12 381 12 l386 0 0 -205z m628 3 l-3 -203 -287 -3 -288 -2 0 205 0 205
290 0 290 0 -2 -202z m622 -3 l0 -205 -285 0 -285 0 0 205 0 205 285 0 285 0
0 -205z m650 190 c70 -36 75 -86 29 -270 l-31 -125 -299 0 -299 0 0 205 0 205
285 0 c234 0 291 -3 315 -15z m-1900 -760 l0 -315 -208 0 -208 0 -99 303 c-54
166 -100 308 -103 315 -3 9 62 12 307 12 l311 0 0 -315z m628 3 l-3 -313 -285
0 -285 0 -3 313 -2 312 290 0 290 0 -2 -312z m622 -3 l0 -315 -285 0 -285 0 0
315 0 315 285 0 285 0 0 -315z m630 305 c0 -6 -34 -147 -76 -315 l-76 -305
-214 0 -214 0 0 315 0 315 290 0 c189 0 290 -4 290 -10z m-1880 -886 l0 -217
-61 7 c-108 11 -199 68 -241 150 -16 32 -98 259 -98 273 0 2 90 3 200 3 l200
0 0 -216z m628 4 l-3 -213 -285 0 -285 0 -3 213 -2 212 290 0 290 0 -2 -212z
m622 -3 l0 -215 -285 0 -285 0 0 215 0 215 285 0 285 0 0 -215z m438 99 c-34
-136 -52 -175 -105 -226 -52 -51 -120 -79 -209 -85 l-74 -6 0 217 0 216 209 0
209 0 -30 -116z m-1502 -684 c35 -14 84 -61 105 -103 31 -60 24 -152 -16 -209
-88 -124 -277 -115 -352 17 -30 52 -31 140 -3 194 49 97 161 139 266 101z
m1040 0 c72 -27 124 -110 124 -197 0 -72 -28 -125 -88 -168 -39 -27 -52 -30
-117 -30 -65 0 -78 3 -117 30 -56 39 -88 102 -88 173 0 147 144 244 286 192z"/>
<path d="M930 4622 c-31 -25 -31 -89 0 -114 51 -41 120 -8 120 57 0 65 -69 98
-120 57z"/>
<path d="M1139 4621 c-29 -23 -31 -81 -4 -111 25 -27 78 -27 105 2 63 68 -29
168 -101 109z"/>
<path d="M1422 4577 c-29 -35 -4 -37 364 -35 351 3 359 3 359 23 0 20 -8 20
-356 23 -282 2 -359 0 -367 -11z"/>
<path d="M1533 700 c-90 -54 -82 -206 12 -246 52 -22 434 -20 481 2 96 46 99
200 5 249 -24 12 -71 15 -248 15 -199 0 -221 -2 -250 -20z m491 -56 c37 -37
35 -86 -3 -125 l-29 -29 -202 0 c-203 0 -230 4 -257 39 -22 28 -16 89 12 116
24 25 24 25 238 25 l214 0 27 -26z"/>
</g>
</svg>
